P3
# Created by Paint Shop Pro 7
8 8
255
99 99 99   255 1 2   4 255 5   192 192 192   99 99 99   255 1 2   4 255 5   192 192 192 
99 99 99   255 1 2   4 255 5   192 192 192   99 99 99   255 1 2   4 255 5   192 192 192 
99 99 99   255 1 2   4 255 5   192 192 192   99 99 99   255 1 2   4 255 5   192 192 192 
99 99 99   255 1 2   4 255 5   192 192 192   99 99 99   255 1 2   4 255 5   192 192 192 

99 99 99   255 1 2   4 255 5   192 192 192   99 99 99   255 1 2   4 255 5   192 192 192 
99 99 99   255 1 2   4 255 5   192 192 192   99 99 99   255 1 2   4 255 5   192 192 192 
99 99 99   255 1 2   4 255 5   192 192 192   99 99 99   255 1 2   4 255 5   192 192 192 
99 99 99   255 1 2   4 255 5   192 192 192   99 99 99   255 1 2   4 255 5   192 192 110 

