P3
# Created by Paint Shop Pro 7
16 16
255
0 0 0 0 0 0 0 0 0 0 0 0 0 0 0 0 0 0 0 0 0 0 0 0 0 0 0 0 0 0 0 0 0 0 0 0 
0 0 0 0 0 0 0 0 0 0 0 0 0 0 0 0 0 0 0 0 0 0 0 0 0 0 0 0 0 0 0 0 0 0 0 0 
0 0 0 0 0 0 0 0 0 0 0 0 0 0 0 0 0 0 0 0 0 0 0 0 0 0 0 0 0 0 0 0 0 0 0 0 
0 0 0 3 1 220 0 0 0 0 0 0 0 0 0 0 0 0 0 0 0 0 0 0 0 0 0 0 0 0 0 0 0 0 0 0 
0 0 0 0 0 0 0 0 0 3 1 220 3 1 220 3 1 220 0 0 0 0 0 0 3 1 220 3 1 220 3 1 220 
232 7 9 232 7 9 232 7 9 3 1 220 3 1 220 0 0 0 232 7 9 3 1 220 245 187 159 
245 187 159 3 1 220 0 0 0 3 1 220 3 1 220 3 1 220 3 1 220 3 1 220 232 7 9 
232 7 9 3 1 220 3 1 220 232 7 9 232 7 9 3 1 220 245 187 159 245 187 159 
245 187 159 245 187 159 3 1 220 3 1 220 3 1 220 3 1 220 245 187 159 245 187 159 
232 7 9 3 1 220 3 1 220 232 7 9 232 7 9 3 1 220 3 1 220 3 1 220 245 187 159 
245 187 159 3 1 220 3 1 220 232 7 9 3 1 220 245 187 159 245 187 159 232 7 9 
0 0 0 3 1 220 232 7 9 232 7 9 3 1 220 245 187 159 3 1 220 245 187 159 245 187 159 
3 1 220 232 7 9 232 7 9 232 7 9 245 187 159 232 7 9 0 0 0 0 0 0 0 0 0 232 7 9 
232 7 9 245 187 159 245 187 159 245 187 159 245 187 159 245 187 159 3 1 220 
232 7 9 245 187 159 232 7 9 232 7 9 232 7 9 232 7 9 3 1 220 3 1 220 0 0 0 
232 7 9 245 187 159 3 1 220 245 187 159 3 1 220 245 187 159 3 1 220 3 1 220 
232 7 9 232 7 9 232 7 9 232 7 9 232 7 9 3 1 220 3 1 220 0 0 0 232 7 9 0 0 0 
245 187 159 3 1 220 3 1 220 245 187 159 0 0 0 3 1 220 232 7 9 232 7 9 232 7 9 
232 7 9 232 7 9 3 1 220 3 1 220 0 0 0 232 7 9 0 0 0 245 187 159 245 187 159 
3 1 220 245 187 159 0 0 0 0 0 0 0 0 0 232 7 9 232 7 9 232 7 9 0 0 0 0 0 0 
3 1 220 0 0 0 0 0 0 0 0 0 245 187 159 245 187 159 3 1 220 0 0 0 0 0 0 0 0 0 
0 0 0 0 0 0 0 0 0 0 0 0 0 0 0 0 0 0 0 0 0 0 0 0 0 0 0 0 0 0 0 0 0 245 187 159 
0 0 0 0 0 0 0 0 0 0 0 0 0 0 0 0 0 0 0 0 0 0 0 0 0 0 0 0 0 0 0 0 0 0 0 0 
0 0 0 0 0 0 0 0 0 0 0 0 0 0 0 0 0 0 0 0 0 0 0 0 0 0 0 0 0 0 0 0 0 0 0 0 
0 0 0 0 0 0 0 0 0 0 0 0 0 0 0 0 0 0 0 0 0 0 0 0 0 0 0 0 0 0 0 0 0 0 0 0 
0 0 0 0 0 0 0 0 0 0 0 0 0 0 0 0 0 0 0 0 0 
